<?xml version="1.0" standalone="no"?>
<!DOCTYPE svg PUBLIC "-//W3C//DTD SVG 20010904//EN"
 "http://www.w3.org/TR/2001/REC-SVG-20010904/DTD/svg10.dtd">
<svg version="1.0" xmlns="http://www.w3.org/2000/svg"
 width="1280.000000pt" height="1101.000000pt" viewBox="0 0 1280.000000 1101.000000"
 preserveAspectRatio="xMidYMid meet">
<metadata>
Created by potrace 1.15, written by Peter Selinger 2001-2017
</metadata>
<g transform="translate(0.000000,1101.000000) scale(0.100000,-0.100000)"
fill="#000000" stroke="none">
<path d="M5054 10808 c-50 -4 -138 -16 -195 -28 -209 -42 -320 -87 -746 -302
l-402 -203 -243 123 c-301 152 -331 163 -473 169 -222 10 -384 -65 -592 -273
l-103 -103 -73 1 c-260 1 -470 -193 -694 -642 -57 -116 -87 -163 -143 -225
-283 -318 -317 -368 -326 -477 -9 -93 16 -195 77 -315 l51 -102 -19 -38 c-21
-44 -85 -81 -145 -85 -21 -1 -38 -5 -38 -9 0 -12 79 -39 115 -39 19 0 35 -5
35 -11 0 -15 -59 -69 -76 -69 -8 0 -14 -4 -14 -9 0 -13 82 -25 109 -16 29 9
27 -10 -3 -40 l-25 -25 25 -6 c13 -3 35 -4 48 0 22 5 23 4 29 -77 7 -82 -4
-229 -23 -309 -5 -24 -36 -120 -69 -215 -66 -188 -120 -398 -147 -568 -18
-111 -25 -417 -14 -585 5 -72 3 -78 -36 -161 -51 -106 -171 -300 -272 -439
-46 -63 -150 -181 -262 -295 -211 -215 -240 -249 -240 -276 0 -46 156 -8 297
73 129 74 219 158 414 392 l183 218 27 -163 c46 -285 93 -492 148 -652 30 -89
238 -505 329 -657 141 -239 332 -418 498 -470 194 -59 445 -72 609 -31 50 13
112 34 138 48 27 13 51 22 53 20 3 -2 -3 -35 -12 -73 -8 -38 -19 -119 -24
-180 -9 -117 -22 -161 -129 -418 -94 -226 -159 -572 -196 -1041 -26 -338 -54
-480 -119 -619 -18 -39 -94 -161 -168 -271 -202 -302 -276 -459 -266 -567 6
-57 48 -114 143 -191 154 -124 340 -184 745 -239 127 -17 590 -18 646 -1 116
36 166 110 184 273 16 144 -16 321 -95 520 -75 188 -89 255 -88 405 1 145 34
510 59 655 31 182 93 359 163 467 21 32 96 132 167 223 180 227 456 598 522
699 73 111 188 339 241 476 72 186 121 387 149 608 l7 59 130 -108 c153 -126
469 -439 543 -539 126 -168 146 -249 146 -580 0 -302 -23 -526 -105 -986 -51
-294 -52 -288 66 -624 29 -82 58 -184 64 -226 11 -70 10 -87 -19 -235 -50
-255 -95 -439 -144 -592 -91 -281 -99 -450 -27 -522 32 -33 98 -46 291 -60
363 -27 965 4 1087 55 32 13 147 18 748 30 390 8 743 17 783 19 102 8 154 23
196 57 46 39 60 90 52 192 -8 101 -22 158 -111 467 -40 140 -80 300 -88 355
-33 208 -51 918 -29 1075 47 325 104 508 272 875 46 99 102 229 125 290 l41
110 50 8 c58 9 533 -9 616 -24 238 -41 459 -189 592 -398 128 -199 295 -515
371 -701 86 -210 88 -222 90 -590 1 -369 5 -401 82 -690 43 -160 47 -185 47
-290 1 -113 0 -117 -47 -238 -62 -159 -87 -264 -93 -387 -7 -124 7 -158 78
-193 93 -46 185 -56 533 -56 428 0 791 35 870 84 89 55 155 164 170 281 18
144 -79 416 -255 719 -178 306 -236 505 -230 795 5 270 4 289 -45 520 -42 199
-47 237 -52 395 -4 137 -2 199 11 283 29 185 12 278 -195 1069 -24 91 -41 169
-37 173 14 15 117 -54 194 -130 87 -86 146 -168 198 -280 97 -205 112 -356 61
-605 -20 -99 -28 -170 -18 -170 4 0 21 25 38 55 16 30 32 55 36 55 15 0 66
-266 72 -380 l3 -55 18 40 c11 22 21 75 25 120 l6 80 53 -87 c73 -121 156
-288 186 -378 22 -67 25 -71 32 -46 7 29 -2 164 -13 194 -15 40 30 -14 84
-101 71 -116 147 -272 164 -336 7 -28 16 -51 21 -51 17 0 7 111 -18 196 -14
49 -47 136 -75 193 -27 57 -49 105 -49 107 0 2 19 -3 41 -11 69 -25 70 -18 8
41 -202 194 -395 632 -565 1287 -75 291 -94 334 -369 828 -186 334 -179 311
-172 582 3 122 17 335 31 472 58 568 61 616 48 720 -7 53 -25 160 -41 238
-162 787 -461 1465 -829 1879 -130 147 -421 412 -642 584 -513 401 -1160 698
-1619 744 -255 25 -644 -2 -1046 -75 -44 -7 -93 -16 -110 -19 -16 -2 -59 -11
-95 -20 -82 -19 -189 -36 -224 -36 -28 0 -165 77 -251 141 -195 146 -541 329
-757 400 -73 24 -135 47 -138 51 -3 3 -45 16 -94 28 -97 23 -334 32 -512 18z
m-1879 -4227 l0 -118 -53 53 c-57 57 -122 94 -165 94 -33 0 -59 -25 -88 -82
-34 -68 -87 -135 -124 -158 -33 -20 -35 -20 -85 -4 -29 9 -65 14 -85 11 l-34
-6 18 42 c15 35 26 45 61 57 29 10 49 25 60 45 10 19 36 40 70 57 97 49 341
126 400 127 l25 1 0 -119z m603 -464 l-3 -62 -19 40 c-22 47 -19 173 5 201 12
15 14 9 17 -50 2 -37 2 -95 0 -129z m-1234 111 c22 -63 55 -126 106 -203 20
-30 27 -53 27 -92 0 -34 8 -64 21 -85 13 -22 18 -44 15 -65 -3 -17 2 -56 11
-86 15 -50 15 -58 0 -93 -9 -22 -18 -64 -19 -94 -1 -30 -7 -75 -14 -100 -7
-25 -11 -65 -8 -90 4 -37 1 -49 -19 -73 -17 -21 -24 -41 -24 -72 0 -34 -6 -50
-27 -72 -16 -16 -36 -43 -45 -61 -9 -18 -25 -32 -35 -32 -10 0 -36 -12 -58
-25 -22 -14 -50 -25 -61 -25 -31 0 -88 63 -129 141 -59 112 -76 204 -82 439
-5 235 -14 203 103 372 82 119 141 224 180 321 14 37 29 66 31 63 3 -3 15 -33
27 -68z m1175 -141 c21 -21 10 -27 -54 -27 -59 0 -65 2 -65 20 0 30 27 91 53
118 l21 23 17 -61 c9 -34 22 -67 28 -73z"/>
</g>
</svg>
